<?xml version="1.0" encoding="UTF-8" standalone="no"?>
<svg xmlns:dc="http://purl.org/dc/elements/1.1/" xmlns:cc="http://creativecommons.org/ns#" xmlns:rdf="http://www.w3.org/1999/02/22-rdf-syntax-ns#" xmlns:svg="http://www.w3.org/2000/svg" xmlns="http://www.w3.org/2000/svg" width="300" height="300" viewBox="0 0 300 300" version="1.1"><defs><filter id="blur"><feGaussianBlur stdDeviation="0.5" /></filter></defs><metadata><rdf:RDF><cc:Work rdf:about=""><dc:format>image/svg+xml</dc:format><dc:type rdf:resource="http://purl.org/dc/dcmitype/StillImage" /><dc:creator><cc:Agent><dc:title>Dominik Menke</dc:title></cc:Agent></dc:creator><cc:license rdf:resource="https://opensource.org/licenses/MIT" /></cc:Work></rdf:RDF></metadata><g transform="matrix(3.866,0,0,3.868,1748,65.46)" fill="#fff"><path d="m -402.9,-14.01 c -4.6,-0.1 -9.3,1.09 -13.5,3.5 l -0.7,0.37 c -7.7,-1.96 -16.1,-0.47 -22.9,4.818 -6.4,5.0785 -9.9,12.537 -10,20.122 v 1.11 c 0,5.56 1.9,11.12 5.6,15.8 2.1,2.75 4.6,4.89 7.4,6.48 l 0.6,0.37 c 0.9,3.23 2.4,6.33 4.6,9.13 9.1,11.43 25.7,13.42 37.2,4.45 6.5,-5.08 9.9,-12.62 10,-20.32 v -0.74 c 9.4,-9.29 10.5,-24.415 2.2,-35.004 -5.2,-6.546 -12.8,-9.986 -20.5,-10.086 z m 0,1.15 c 7.4,0.1 14.7,3.386 19.6,9.656 8.6,10.929 6.7,26.874 -4.3,35.474 -6.1,4.92 -14.1,6.42 -21.3,4.73 0.5,-0.32 1,-0.66 1.4,-1 1.1,-0.82 2,-1.67 2.9,-2.62 5,0.39 10.2,-1.06 14.4,-4.45 9.2,-7.22 10.7,-20.385 3.5,-29.5735 -5.8,-7.4305 -15.7,-9.8365 -24,-6.6365 -1.7,-0.9 -3.4,-1.667 -5.2,-2.223 4,-2.317 8.5,-3.417 13,-3.357 z m -20.8,3.024 c 7.5,0 15,3.326 20,9.6725 1.9,2.4595 3.4,5.1595 4.2,8.0385 -1.7,-0.79 -3.4,-1.42 -5.2,-1.849 -0.7,-1.29 -1.5,-2.46 -2.4,-3.57 -7.1,-9.207 -20.4,-10.768 -29.6,-3.55 -9.2,7.18 -10.7,20.364 -3.5,29.554 0.9,1.21 1.9,2.19 3.1,3.17 0,1.91 0.2,3.78 0.6,5.58 -2.6,-1.5 -5.1,-3.57 -7.1,-6.19 -8.6,-10.95 -6.7,-26.794 4.3,-35.443 4.6,-3.651 10.2,-5.416 15.6,-5.413 z m 20.5,2.31 c 5.9,-0.04 11.8,2.529 15.7,7.5525 5.2,6.7185 5.6,15.6235 1.4,22.5335 -0.9,-2.68 -2.2,-5.22 -4.1,-7.57 -2.3,-2.87 -5,-5.095 -8,-6.765 l -0.2,-0.69 c -0.9,-3.019 -2.4,-5.849 -4.4,-8.4085 -1.8,-2.3105 -4,-4.2105 -6.3,-5.7455 1.9,-0.595 3.9,-0.897 5.9,-0.907 z m -18.7,2.839 c 1.7,0.158 3.4,0.476 5,1.113 -8.6,7.33 -10,20.074 -2.9,28.984 2.2,2.78 5.1,4.98 8.2,6.3 -1.5,1.01 -2.9,1.85 -4.5,2.49 -2.6,-1.56 -5,-3.6 -7.1,-6.22 -7.7,-9.84 -6.9,-23.694 1.3,-32.667 z m -1.6,0.158 c -4.1,4.8955 -6.2,11.004 -6.1,17.139 l -0.5,0.53 c -4.5,4.63 -6.9,10.61 -7.2,16.74 -0.8,-0.66 -1.4,-1.35 -2,-2.11 -3,-3.81 -4.4,-8.36 -4.3,-12.81 0.1,-5.735 2.7,-11.364 7.6,-15.1735 v 0 c 3.8,-2.9405 8.2,-4.3415 12.5,-4.3155 z m 7.6,1.535 c 3.1,1.27 5.8,3.3305 8,6.11 v 0 0 c 0.6,0.71 1.1,1.45 1.5,2.22 -5.4,-0.95 -11.1,-0.21 -16.2,2.299 0.9,-3.909 3.1,-7.5885 6.4,-10.419 z m 4.4,9.09 c 7.7,-0.14 15.3,3.159 20.4,9.584 2.1,2.64 3.5,5.47 4.4,8.46 -1,1.38 -2.2,2.62 -3.5,3.71 -0.5,-3.36 -2,-6.62 -4.2,-9.55 -7,-8.885 -19.8,-10.605 -29,-4.03 -0.2,-1.72 -0.1,-3.45 0.2,-5.095 3.7,-1.99 7.7,-2.999 11.7,-3.079 z m 0.5,5.334 c 2.4,0 4.8,0.42 7.2,1.28 v 0.27 c 0.8,6.56 -1.7,13.31 -7.2,17.78 l -0.2,-0.1 c -2.9,-1.25 -5.6,-3.34 -7.7,-5.96 v 0 c -2.2,-2.81 -3.5,-6.03 -4.1,-9.34 l 0.3,-0.19 c 3.5,-2.54 7.6,-3.74 11.7,-3.74 z m 8.3,1.42 c 1.5,0.76 3,1.64 4.3,2.75 0,7.38 -3.3,14.79 -9.6,19.73 -6.2,4.87 -14.1,6.41 -21.2,4.77 -0.8,-1.56 -1.3,-3.2 -1.6,-4.87 6.6,2.41 14.3,1.43 20.2,-3.28 6,-4.74 8.8,-12.04 7.9,-19.1 z m -26.7,1.05 c 0.1,1.86 0.5,3.71 1,5.59 -5.1,7.35 -5,17.43 0.8,24.87 7.3,9.15 20.4,10.77 29.6,3.57 4.3,-3.33 6.9,-7.91 7.8,-12.83 1.1,-0.59 2.1,-1.3 3.2,-2.15 0.4,-0.34 0.9,-0.71 1.2,-1.16 -0.1,7.41 -3.3,14.58 -9.6,19.45 -10.9,8.6 -26.9,6.72 -35.5,-4.26 -7.9,-10 -7,-24.16 1.5,-33.08 z m 32.1,2.94 c 0.7,0.66 1.4,1.38 2,2.14 2.2,2.81 3.5,5.88 4,9.05 l 0.1,0.27 c -3.6,2.75 -7.8,4.04 -12.1,3.99 3.8,-4.44 5.8,-9.92 6.1,-15.45 z m -30.8,4.39 c 0.9,2.62 2.2,5.14 4.1,7.44 1.8,2.38 4,4.26 6.3,5.79 -4.2,1.3 -8.6,1.19 -12.7,-0.29 l -0.3,-0.1 c -0.1,-0.74 -0.2,-1.48 -0.2,-2.22 v -0.69 c 0.1,-3.49 1,-6.93 2.8,-9.95 z m 36.6,14.85 c -1.1,4.2 -3.4,8.07 -7.1,10.95 -8.7,6.85 -21.2,5.32 -28,-3.36 -0.6,-0.74 -1.1,-1.48 -1.6,-2.28 6.2,1.11 12.8,0 18.4,-3.44 l 0.7,0.16 c 5.8,1.35 12,0.69 17.6,-2.03 z" /><path style="filter:url(#blur)" d="m -402.9,-14.01 c -4.6,-0.1 -9.3,1.09 -13.5,3.5 l -0.7,0.37 c -7.7,-1.96 -16.1,-0.47 -22.9,4.818 -6.4,5.0785 -9.9,12.537 -10,20.122 v 1.11 c 0,5.56 1.9,11.12 5.6,15.8 2.1,2.75 4.6,4.89 7.4,6.48 l 0.6,0.37 c 0.9,3.23 2.4,6.33 4.6,9.13 9.1,11.43 25.7,13.42 37.2,4.45 6.5,-5.08 9.9,-12.62 10,-20.32 v -0.74 c 9.4,-9.29 10.5,-24.415 2.2,-35.004 -5.2,-6.546 -12.8,-9.986 -20.5,-10.086 z m 0,1.15 c 7.4,0.1 14.7,3.386 19.6,9.656 8.6,10.929 6.7,26.874 -4.3,35.474 -6.1,4.92 -14.1,6.42 -21.3,4.73 0.5,-0.32 1,-0.66 1.4,-1 1.1,-0.82 2,-1.67 2.9,-2.62 5,0.39 10.2,-1.06 14.4,-4.45 9.2,-7.22 10.7,-20.385 3.5,-29.5735 -5.8,-7.4305 -15.7,-9.8365 -24,-6.6365 -1.7,-0.9 -3.4,-1.667 -5.2,-2.223 4,-2.317 8.5,-3.417 13,-3.357 z m -20.8,3.024 c 7.5,0 15,3.326 20,9.6725 1.9,2.4595 3.4,5.1595 4.2,8.0385 -1.7,-0.79 -3.4,-1.42 -5.2,-1.849 -0.7,-1.29 -1.5,-2.46 -2.4,-3.57 -7.1,-9.207 -20.4,-10.768 -29.6,-3.55 -9.2,7.18 -10.7,20.364 -3.5,29.554 0.9,1.21 1.9,2.19 3.1,3.17 0,1.91 0.2,3.78 0.6,5.58 -2.6,-1.5 -5.1,-3.57 -7.1,-6.19 -8.6,-10.95 -6.7,-26.794 4.3,-35.443 4.6,-3.651 10.2,-5.416 15.6,-5.413 z m 20.5,2.31 c 5.9,-0.04 11.8,2.529 15.7,7.5525 5.2,6.7185 5.6,15.6235 1.4,22.5335 -0.9,-2.68 -2.2,-5.22 -4.1,-7.57 -2.3,-2.87 -5,-5.095 -8,-6.765 l -0.2,-0.69 c -0.9,-3.019 -2.4,-5.849 -4.4,-8.4085 -1.8,-2.3105 -4,-4.2105 -6.3,-5.7455 1.9,-0.595 3.9,-0.897 5.9,-0.907 z m -18.7,2.839 c 1.7,0.158 3.4,0.476 5,1.113 -8.6,7.33 -10,20.074 -2.9,28.984 2.2,2.78 5.1,4.98 8.2,6.3 -1.5,1.01 -2.9,1.85 -4.5,2.49 -2.6,-1.56 -5,-3.6 -7.1,-6.22 -7.7,-9.84 -6.9,-23.694 1.3,-32.667 z m -1.6,0.158 c -4.1,4.8955 -6.2,11.004 -6.1,17.139 l -0.5,0.53 c -4.5,4.63 -6.9,10.61 -7.2,16.74 -0.8,-0.66 -1.4,-1.35 -2,-2.11 -3,-3.81 -4.4,-8.36 -4.3,-12.81 0.1,-5.735 2.7,-11.364 7.6,-15.1735 v 0 c 3.8,-2.9405 8.2,-4.3415 12.5,-4.3155 z m 7.6,1.535 c 3.1,1.27 5.8,3.3305 8,6.11 v 0 0 c 0.6,0.71 1.1,1.45 1.5,2.22 -5.4,-0.95 -11.1,-0.21 -16.2,2.299 0.9,-3.909 3.1,-7.5885 6.4,-10.419 z m 4.4,9.09 c 7.7,-0.14 15.3,3.159 20.4,9.584 2.1,2.64 3.5,5.47 4.4,8.46 -1,1.38 -2.2,2.62 -3.5,3.71 -0.5,-3.36 -2,-6.62 -4.2,-9.55 -7,-8.885 -19.8,-10.605 -29,-4.03 -0.2,-1.72 -0.1,-3.45 0.2,-5.095 3.7,-1.99 7.7,-2.999 11.7,-3.079 z m 0.5,5.334 c 2.4,0 4.8,0.42 7.2,1.28 v 0.27 c 0.8,6.56 -1.7,13.31 -7.2,17.78 l -0.2,-0.1 c -2.9,-1.25 -5.6,-3.34 -7.7,-5.96 v 0 c -2.2,-2.81 -3.5,-6.03 -4.1,-9.34 l 0.3,-0.19 c 3.5,-2.54 7.6,-3.74 11.7,-3.74 z m 8.3,1.42 c 1.5,0.76 3,1.64 4.3,2.75 0,7.38 -3.3,14.79 -9.6,19.73 -6.2,4.87 -14.1,6.41 -21.2,4.77 -0.8,-1.56 -1.3,-3.2 -1.6,-4.87 6.6,2.41 14.3,1.43 20.2,-3.28 6,-4.74 8.8,-12.04 7.9,-19.1 z m -26.7,1.05 c 0.1,1.86 0.5,3.71 1,5.59 -5.1,7.35 -5,17.43 0.8,24.87 7.3,9.15 20.4,10.77 29.6,3.57 4.3,-3.33 6.9,-7.91 7.8,-12.83 1.1,-0.59 2.1,-1.3 3.2,-2.15 0.4,-0.34 0.9,-0.71 1.2,-1.16 -0.1,7.41 -3.3,14.58 -9.6,19.45 -10.9,8.6 -26.9,6.72 -35.5,-4.26 -7.9,-10 -7,-24.16 1.5,-33.08 z m 32.1,2.94 c 0.7,0.66 1.4,1.38 2,2.14 2.2,2.81 3.5,5.88 4,9.05 l 0.1,0.27 c -3.6,2.75 -7.8,4.04 -12.1,3.99 3.8,-4.44 5.8,-9.92 6.1,-15.45 z m -30.8,4.39 c 0.9,2.62 2.2,5.14 4.1,7.44 1.8,2.38 4,4.26 6.3,5.79 -4.2,1.3 -8.6,1.19 -12.7,-0.29 l -0.3,-0.1 c -0.1,-0.74 -0.2,-1.48 -0.2,-2.22 v -0.69 c 0.1,-3.49 1,-6.93 2.8,-9.95 z m 36.6,14.85 c -1.1,4.2 -3.4,8.07 -7.1,10.95 -8.7,6.85 -21.2,5.32 -28,-3.36 -0.6,-0.74 -1.1,-1.48 -1.6,-2.28 6.2,1.11 12.8,0 18.4,-3.44 l 0.7,0.16 c 5.8,1.35 12,0.69 17.6,-2.03 z" /></g></svg>
